<?xml version="1.0" encoding="UTF-8"?>
<svg id="Layer_1" data-name="Layer 1" xmlns="http://www.w3.org/2000/svg" viewBox="0 0 3779.55 2015.37">
  <defs>
    <style>
      .cls-1 {
        fill: #f5f6f4;
      }

      .cls-2 {
        fill: #1e1f1e;
      }
    </style>
  </defs>
  <path class="cls-2" d="m2685.73,1550.41H889.25s201.08-879.52,201.08-879.52c15.21-66.54,97.49-120.48,183.76-120.48h1484.05c86.28,0,143.88,53.94,128.67,120.48l-201.08,879.52Z"/>
  <g>
    <path class="cls-1" d="m1283.33,598.6h349.79s-206.59,903.61-206.59,903.61h-218.7s171.06-748.19,171.06-748.19h-24.99s-171.06,748.19-171.06,748.19h-218.7s186.73-816.77,186.73-816.77c10.97-47.97,70.27-86.85,132.46-86.85Z"/>
    <path class="cls-1" d="m1658.11,598.6h218.7s-170.78,746.99-170.78,746.99h24.99s170.78-746.99,170.78-746.99h206.21s-170.78,746.99-170.78,746.99h24.99s170.78-746.99,170.78-746.99h218.7s-206.59,903.61-206.59,903.61h-693.6s206.59-903.61,206.59-903.61Z"/>
    <path class="cls-1" d="m2402.85,1440.77l-14.05,61.45h-218.7s206.59-903.61,206.59-903.61h348.9c58.37,0,97.35,36.5,87.06,81.51l-133.96,585.96h-210.89s117.07-512.05,117.07-512.05h-24.99s-121.47,531.33-121.47,531.33h235.89s-35.53,155.42-35.53,155.42h-235.89Z"/>
  </g>
</svg>